# File generated by ImageToStl.com - Free Image and 3D model conversion tools

mtllib drum.mtl

o obj1
v 0.06952903 0.39457679 1.16896343
v 0.21523446 0.33793381 -0.00108927
v 0.06952903 0.39457679 -0.00108927
v 0.21523446 0.33793381 1.16896343
v 0.32817236 0.22984347 -0.00108927
v 0.32817236 0.22984347 1.16896343
v 0.39114901 0.08676154 -0.00108927
v 0.39114901 0.08676154 1.16896343
v 0.39457679 -0.06952905 -0.00108927
v 0.39457679 -0.06952905 1.16896343
v 0.33793381 -0.21523449 -0.00108927
v 0.33793381 -0.21523449 1.16896343
v 0.22984347 -0.32817236 -0.00108927
v 0.22984347 -0.32817236 1.16896343
v 0.08676156 -0.39114901 -0.00108927
v 0.08676156 -0.39114901 1.16896343
v -0.06952897 -0.39457679 -0.00108927
v -0.06952897 -0.39457679 1.16896343
v -0.21523437 -0.33793384 -0.00108927
v -0.21523437 -0.33793384 1.16896343
v -0.3281723 -0.22984356 -0.00108927
v -0.3281723 -0.22984356 1.16896343
v -0.39114904 -0.0867616 -0.00108927
v -0.39114904 -0.0867616 1.16896343
v -0.39457679 0.06952904 -0.00108927
v -0.39457679 0.06952904 1.16896343
v -0.33793375 0.2152345 -0.00108927
v -0.33793375 0.2152345 1.16896343
v -0.22984335 0.32817245 -0.00108927
v -0.22984335 0.32817245 1.16896343
v -0.08676135 0.39114907 -0.00108927
v -0.08676135 0.39114907 1.16896343
vn 0.12949 0.73488 0.66572
vn 0.40087 0.62939 -0.66571
vn 0.12949 0.73488 -0.66572
vn 0.40087 0.62939 0.66571
vn 0.6112 0.42807 -0.66572
vn 0.6112 0.42807 0.66572
vn 0.72851 0.16159 -0.6657
vn 0.72851 0.16159 0.6657
vn 0.73488 -0.12949 -0.66572
vn 0.73488 -0.12949 0.66572
vn 0.62939 -0.40087 -0.66571
vn 0.62939 -0.40087 0.66571
vn 0.42808 -0.61121 -0.66571
vn 0.42808 -0.61121 0.66571
vn 0.16159 -0.7285 -0.66572
vn 0.16159 -0.7285 0.66572
vn -0.1295 -0.7349 -0.6657
vn -0.1295 -0.7349 0.6657
vn -0.40086 -0.62939 -0.66572
vn -0.40086 -0.62939 0.66572
vn -0.61121 -0.42808 -0.66571
vn -0.6112 -0.42807 0.66572
vn -0.7285 -0.16159 -0.66571
vn -0.72851 -0.16159 0.6657
vn -0.73488 0.12949 -0.66572
vn -0.73488 0.12949 0.66572
vn -0.6294 0.40087 -0.6657
vn -0.62939 0.40087 0.66571
vn -0.42807 0.6112 -0.66572
vn -0.42808 0.61121 0.66571
vn -0.16159 0.7285 -0.66571
vn -0.16159 0.7285 0.66571
vt 0.02983 0.3207
vt 0.47716 0.26093
vt 0.47716 0.3207
vt 0.02983 0.26093
vt 0.47716 0.20117
vt 0.02983 0.20116
vt 0.47716 0.1414
vt 0.02983 0.1414
vt 0.47716 0.08163
vt 0.02983 0.08163
vt 0.47716 0.02187
vt 0.02983 0.97814
vt 0.47716 0.91837
vt 0.47716 0.97814
vt 0.02983 0.91837
vt 0.47716 0.8586
vt 0.02983 0.8586
vt 0.47716 0.79883
vt 0.02983 0.79884
vt 0.47716 0.73907
vt 0.02983 0.73907
vt 0.47716 0.6793
vt 0.02983 0.6793
vt 0.47716 0.61953
vt 0.02983 0.61953
vt 0.47716 0.55977
vt 0.02983 0.55977
vt 0.47716 0.5
vt 0.02983 0.5
vt 0.47716 0.44023
vt 0.93276 0.62197
vt 0.7891 0.96878
vt 0.70102 0.96878
vt 0.02983 0.44023
vt 0.47716 0.38047
vt 0.02983 0.38047
vt 0.61024 0.08433
vt 0.92334 0.39743
vt 0.86106 0.45971
vt 0.61965 0.55969
vt 0.52366 0.70334
vt 0.55737 0.62197
vt 0.52366 0.79142
vt 0.70102 0.52598
vt 0.55737 0.8728
vt 0.7891 0.52598
vt 0.87048 0.55969
vt 0.96646 0.70334
vt 0.87048 0.93508
vt 0.96646 0.79142
vt 0.93276 0.8728
vt 0.51425 0.31606
vt 0.61024 0.45971
vt 0.54796 0.39743
vt 0.51425 0.22798
vt 0.54796 0.14661
vt 0.69161 0.49342
vt 0.77969 0.49342
vt 0.69161 0.05062
vt 0.95705 0.31606
vt 0.77969 0.05062
vt 0.95705 0.22798
vt 0.86106 0.08433
vt 0.92334 0.14661
vt 0.02983 0.02186
vt 0.61965 0.93508
usemtl mat0
f 1/1/1 2/2/2 3/3/3
f 4/4/4 5/5/5 2/2/2
f 6/6/6 7/7/7 5/5/5
f 8/8/8 9/9/9 7/7/7
f 10/10/10 11/11/11 9/9/9
f 12/12/12 13/13/13 11/14/11
f 14/15/14 15/16/15 13/13/13
f 16/17/16 17/18/17 15/16/15
f 18/19/18 19/20/19 17/18/17
f 20/21/20 21/22/21 19/20/19
f 22/23/22 23/24/23 21/22/21
f 24/25/24 25/26/25 23/24/23
f 26/27/26 27/28/27 25/26/25
f 28/29/28 29/30/29 27/28/27
f 16/31/16 6/32/6 4/33/4
f 30/34/30 31/35/31 29/30/29
f 32/36/32 3/3/3 31/35/31
f 17/37/17 31/38/31 3/39/3
f 24/40/24 28/41/28 26/42/26
f 30/43/30 24/40/24 22/44/22
f 32/45/32 22/44/22 20/46/20
f 18/47/18 32/45/32 20/46/20
f 4/33/4 18/47/18 16/31/16
f 14/48/14 8/49/8 6/32/6
f 8/49/8 12/50/12 10/51/10
f 11/52/11 7/53/7 9/54/9
f 13/55/13 7/53/7 11/52/11
f 15/56/15 5/57/5 13/55/13
f 17/37/17 2/58/2 15/56/15
f 19/59/19 29/60/29 31/38/31
f 21/61/21 27/62/27 29/60/29
f 27/62/27 23/63/23 25/64/25
f 1/1/1 4/4/4 2/2/2
f 4/4/4 6/6/6 5/5/5
f 6/6/6 8/8/8 7/7/7
f 8/8/8 10/10/10 9/9/9
f 10/10/10 12/65/12 11/11/11
f 12/12/12 14/15/14 13/13/13
f 14/15/14 16/17/16 15/16/15
f 16/17/16 18/19/18 17/18/17
f 18/19/18 20/21/20 19/20/19
f 20/21/20 22/23/22 21/22/21
f 22/23/22 24/25/24 23/24/23
f 24/25/24 26/27/26 25/26/25
f 26/27/26 28/29/28 27/28/27
f 28/29/28 30/34/30 29/30/29
f 16/31/16 14/48/14 6/32/6
f 30/34/30 32/36/32 31/35/31
f 32/36/32 1/1/1 3/3/3
f 17/37/17 19/59/19 31/38/31
f 30/43/30 28/41/28 24/40/24
f 32/45/32 30/43/30 22/44/22
f 18/47/18 1/66/1 32/45/32
f 4/33/4 1/66/1 18/47/18
f 14/48/14 12/50/12 8/49/8
f 13/55/13 5/57/5 7/53/7
f 15/56/15 2/58/2 5/57/5
f 17/37/17 3/39/3 2/58/2
f 19/59/19 21/61/21 29/60/29
f 21/61/21 23/63/23 27/62/27
# Vertices: 32, normals: 32, texture coordinates: 66, faces: 60

